<?xml version="1.0" encoding="UTF-8"?>
<svg width="92px" height="92px" viewBox="0 0 92 92" version="1.1" xmlns="http://www.w3.org/2000/svg" xmlns:xlink="http://www.w3.org/1999/xlink">
    <!-- Generator: Sketch 41.2 (35397) - http://www.bohemiancoding.com/sketch -->
    <title>Combined Shape</title>
    <desc>Created with Sketch.</desc>
    <defs></defs>
    <g id="Welcome" stroke="none" stroke-width="1" fill="none" fill-rule="evenodd">
        <g id="Desktop" transform="translate(-284.000000, -3231.000000)" fill="#FFFFFF">
            <g id="Group-16" transform="translate(0.000000, 3100.000000)">
                <g id="Facebook" transform="translate(284.000000, 131.000000)">
                    <path d="M0,46 C0,20.5949003 20.5949003,0 46,0 C71.4050997,0 92,20.5949003 92,46 C92,71.4050997 71.4050997,92 46,92 C20.5949003,92 0,71.4050997 0,46 Z M49.2613139,71.5136637 L49.2613139,46.4872351 L56.1697028,46.4872351 L57.0852134,37.8629892 L49.2613139,37.8629892 L49.2730512,33.5464711 C49.2730512,31.2971349 49.4867682,30.0918893 52.7174646,30.0918893 L57.036308,30.0918893 L57.036308,21.4666667 L50.126941,21.4666667 C41.8276802,21.4666667 38.9065556,25.6503538 38.9065556,32.6859999 L38.9065556,37.8639659 L33.7333333,37.8639659 L33.7333333,46.4882118 L38.9065556,46.4882118 L38.9065556,71.5136637 L49.2613139,71.5136637 Z" id="Combined-Shape"></path>
                </g>
            </g>
        </g>
    </g>
</svg>