<?xml version="1.0" encoding="UTF-8"?>
<svg width="92px" height="91px" viewBox="0 0 92 91" version="1.1" xmlns="http://www.w3.org/2000/svg" xmlns:xlink="http://www.w3.org/1999/xlink">
    <!-- Generator: Sketch 41.2 (35397) - http://www.bohemiancoding.com/sketch -->
    <title>Combined Shape</title>
    <desc>Created with Sketch.</desc>
    <defs></defs>
    <g id="Welcome" stroke="none" stroke-width="1" fill="none" fill-rule="evenodd">
        <g id="Desktop" transform="translate(-406.000000, -3231.000000)" fill="#FFFFFF">
            <g id="Group-16" transform="translate(0.000000, 3100.000000)">
                <g id="Google-+" transform="translate(406.000000, 131.000000)">
                    <path d="M0,45.5 C0,20.3710426 20.5070585,0 45.8037999,0 C71.1005413,0 91.6075997,20.3710426 91.6075997,45.5 C91.6075997,70.6289574 71.1005413,91 45.8037999,91 C20.5070585,91 0,70.6289574 0,45.5 Z M37.4217586,44.2 L37.4217586,49.14 L45.6753353,49.14 C45.3426975,51.2600833 43.1805514,55.3561667 37.4217586,55.3561667 C32.4529806,55.3561667 28.3989568,51.2806667 28.3989568,46.2583333 C28.3989568,41.236 32.4529806,37.1605 37.4217586,37.1605 C40.2491803,37.1605 42.1410581,38.3543333 43.2221311,39.3835 L47.1722057,35.61675 C44.635842,33.27025 41.3510432,31.85 37.4217586,31.85 C29.3760805,31.85 22.8688525,38.2925833 22.8688525,46.2583333 C22.8688525,54.2240833 29.3760805,60.6666667 37.4217586,60.6666667 C45.8208644,60.6666667 51.3925484,54.821 51.3925484,46.5876667 C51.3925484,45.6408333 51.2885991,44.9204167 51.1638599,44.2 L37.4217586,44.2 Z M68.6065574,44.2 L64.4485842,44.2 L64.4485842,40.0833333 L60.290611,40.0833333 L60.290611,44.2 L56.1326379,44.2 L56.1326379,48.3166667 L60.290611,48.3166667 L60.290611,52.4333333 L64.4485842,52.4333333 L64.4485842,48.3166667 L68.6065574,48.3166667 L68.6065574,44.2 Z" id="Combined-Shape"></path>
                </g>
            </g>
        </g>
    </g>
</svg>