<?xml version="1.0" encoding="UTF-8"?>
<svg width="92px" height="91px" viewBox="0 0 92 91" version="1.1" xmlns="http://www.w3.org/2000/svg" xmlns:xlink="http://www.w3.org/1999/xlink">
    <!-- Generator: Sketch 41.2 (35397) - http://www.bohemiancoding.com/sketch -->
    <title>linkedin</title>
    <desc>Created with Sketch.</desc>
    <defs></defs>
    <g id="Welcome" stroke="none" stroke-width="1" fill="none" fill-rule="evenodd">
        <g id="Desktop" transform="translate(-406.000000, -3231.000000)" fill="#FFFFFF">
            <g id="Group-16" transform="translate(0.000000, 3100.000000)">
                <g id="linkedin" transform="translate(406.000000, 131.000000)">
                    <path d="M0,45.5 C0,20.3710426 20.5070585,0 45.8037999,0 C71.1005413,0 91.6075997,20.3710426 91.6075997,45.5 C91.6075997,70.6289574 71.1005413,91 45.8037999,91 C20.5070585,91 0,70.6289574 0,45.5 Z M34.1343394,37.9739286 L24.9281159,37.9739286 L24.9281159,65.6348085 L34.1343394,65.6348085 L34.1343394,37.9739286 Z M34.7406845,29.4173026 C34.6809325,26.7051708 32.7414738,24.6394491 29.5920828,24.6394491 C26.4426917,24.6394491 24.3837291,26.7051708 24.3837291,29.4173026 C24.3837291,32.0732567 26.3818366,34.1984606 29.4725788,34.1984606 L29.5314115,34.1984606 C32.7414738,34.1984606 34.7406845,32.0732567 34.7406845,29.4173026 Z M67.3355029,49.7749053 C67.3355029,41.2786794 62.7937979,37.3243976 56.7356785,37.3243976 C51.8477795,37.3243976 49.6593848,40.0091748 48.437502,41.8925946 L48.437502,37.974663 L39.2301754,37.974663 C39.351518,40.5702169 39.2301754,65.6355429 39.2301754,65.6355429 L48.437502,65.6355429 L48.437502,50.1874255 C48.437502,49.3607329 48.497254,48.5360598 48.7406745,47.9441751 C49.4060362,46.2926258 50.9209797,44.5826959 53.4643934,44.5826959 C56.7970852,44.5826959 58.1292795,47.1191348 58.1292795,50.8362222 L58.1292795,65.6348085 L67.3351352,65.6348085 L67.3355029,49.7749053 Z" id="Combined-Shape"></path>
                </g>
            </g>
        </g>
    </g>
</svg>