<?xml version="1.0" encoding="UTF-8"?>
<svg width="92px" height="92px" viewBox="0 0 92 92" version="1.1" xmlns="http://www.w3.org/2000/svg" xmlns:xlink="http://www.w3.org/1999/xlink">
    <!-- Generator: Sketch 41.2 (35397) - http://www.bohemiancoding.com/sketch -->
    <title>Combined Shape</title>
    <desc>Created with Sketch.</desc>
    <defs></defs>
    <g id="Welcome" stroke="none" stroke-width="1" fill="none" fill-rule="evenodd">
        <g id="Desktop" transform="translate(-650.000000, -3231.000000)" fill="#FFFFFF">
            <g id="Group-16" transform="translate(0.000000, 3100.000000)">
                <path d="M650,177 C650,196.485167 662.114398,213.132372 679.210367,219.835835 C678.808365,216.198676 678.449822,210.615176 679.373341,206.635504 C680.204508,203.047276 684.762347,183.77414 684.762347,183.77414 C684.762347,183.77414 683.387933,181.017728 683.387933,176.945633 C683.387933,170.546626 687.087442,165.773195 691.705038,165.773195 C695.621845,165.773195 697.517776,168.719891 697.517776,172.253753 C697.517776,176.200804 695.007977,182.099634 693.709617,187.568963 C692.628557,192.15211 696.00755,195.881692 700.516497,195.881692 C708.686925,195.881692 714.966855,187.259071 714.966855,174.814443 C714.966855,163.799669 707.062618,156.101288 695.768522,156.101288 C682.692577,156.101288 675.016504,165.919986 675.016504,176.064886 C675.016504,180.017374 676.532161,184.258007 678.433524,186.563172 C678.808365,187.019856 678.862689,187.416736 678.75404,187.884293 C678.406362,189.335894 677.62952,192.462002 677.47741,193.098097 C677.276409,193.940787 676.809217,194.120199 675.93459,193.717882 C670.197907,191.043021 666.612479,182.637868 666.612479,175.896348 C666.612479,161.38577 677.14603,148.054958 696.979962,148.054958 C712.924248,148.054958 725.315702,159.428555 725.315702,174.624158 C725.315702,190.477603 715.325398,203.237561 701.467178,203.237561 C696.806123,203.237561 692.427556,200.812788 690.928195,197.953079 C690.928195,197.953079 688.62483,206.733365 688.065286,208.886302 C687.027685,212.882283 684.224533,217.889493 682.355764,220.944924 C686.652845,222.282354 691.221548,223 695.964091,223 C721.350002,223 741.928181,202.405744 741.928181,177 C741.928181,151.588819 721.350002,131 695.964091,131 C670.578179,131 650,151.588819 650,177 Z" id="Combined-Shape"></path>
            </g>
        </g>
    </g>
</svg>