<?xml version="1.0" encoding="UTF-8"?>
<svg width="92px" height="92px" viewBox="0 0 92 92" version="1.1" xmlns="http://www.w3.org/2000/svg" xmlns:xlink="http://www.w3.org/1999/xlink">
    <!-- Generator: Sketch 41.2 (35397) - http://www.bohemiancoding.com/sketch -->
    <title>Combined Shape</title>
    <desc>Created with Sketch.</desc>
    <defs></defs>
    <g id="Welcome" stroke="none" stroke-width="1" fill="none" fill-rule="evenodd">
        <g id="Desktop" transform="translate(-528.000000, -3231.000000)" fill="#FFFFFF">
            <g id="Group-16" transform="translate(0.000000, 3100.000000)">
                <g id="Twitter" transform="translate(528.000000, 131.000000)">
                    <path d="M0,46 C0,20.5949003 20.5949003,0 46,0 C71.4050997,0 92,20.5949003 92,46 C92,71.4050997 71.4050997,92 46,92 C20.5949003,92 0,71.4050997 0,46 Z M44.622305,37.3893762 L44.7188332,38.98108 L43.1100307,38.7861775 C37.2539898,38.0390512 32.137998,35.5053187 27.7942313,31.2499473 L25.6706121,29.1385036 L25.1236192,30.6977236 C23.9652815,34.1734849 24.7053306,37.8441487 27.1185343,40.3129138 C28.4055763,41.6772313 28.1159918,41.8721338 25.8958444,41.06004 C25.1236192,40.80017 24.4479222,40.6052675 24.3835701,40.7027188 C24.1583378,40.930105 24.9305629,43.8861263 25.5419079,45.0555413 C26.3784852,46.6797289 28.0838158,48.2714326 29.9500266,49.2134614 L31.526653,49.9605877 L29.6604422,49.9930714 C27.8585834,49.9930714 27.7942313,50.0255552 27.9872876,50.7077139 C28.6308086,52.8191577 31.1727165,55.0605365 34.0042088,56.035049 L35.9991239,56.7172078 L34.2616172,57.7566878 C31.6875333,59.2509403 28.6629847,60.0955178 25.638436,60.1604853 C24.1905138,60.1929691 23,60.3229041 23,60.4203554 C23,60.7451929 26.925478,62.5642829 29.2099775,63.2789254 C36.063476,65.3903692 44.2040164,64.4808242 50.3174657,60.8751279 C54.6612324,58.3089116 59.004999,53.2089627 61.0320901,48.2714326 C62.1260758,45.6402488 63.2200614,40.8326538 63.2200614,38.5263075 C63.2200614,37.0320549 63.3165896,36.8371524 65.1184483,35.0505462 C66.180258,34.0110661 67.1777155,32.8741349 67.3707718,32.5492974 C67.6925323,31.9321061 67.6603562,31.9321061 66.0193777,32.4843299 C63.2844135,33.4588424 62.8983009,33.3289074 64.249695,31.8671386 C65.2471525,30.8276586 66.4376664,28.9436011 66.4376664,28.3913773 C66.4376664,28.293926 65.9550256,28.4563448 65.4080328,28.7486985 C64.8288639,29.0735361 63.5418219,29.5607923 62.5765405,29.8531461 L60.8390338,30.4053698 L59.2624074,29.3334061 C58.3936541,28.7486985 57.1709642,28.0990235 56.5274432,27.904121 C54.8864647,27.4493485 52.3767329,27.514316 50.8966346,28.034056 C46.8746285,29.4958248 44.3327206,33.2639399 44.622305,37.3893762 Z" id="Combined-Shape"></path>
                </g>
            </g>
        </g>
    </g>
</svg>